<?xml version="1.0" encoding="utf-8"?>
<!-- Generator: Adobe Illustrator 22.0.1, SVG Export Plug-In . SVG Version: 6.00 Build 0)  -->
<svg version="1.1" id="Capa_1" xmlns="http://www.w3.org/2000/svg" xmlns:xlink="http://www.w3.org/1999/xlink" x="0px" y="0px"
	 viewBox="0 0 1531.3 227.9" style="enable-background:new 0 0 1531.3 227.9;" xml:space="preserve">
<style type="text/css">
	.st0{fill:#FFFFFF;}
	.st1{fill:#CA4F24;}
</style>
<g>
	<g>
		<path class="st0" d="M280.7,69.5V53.2c0-2.2,1.1-3.3,3.3-3.3h90.1c2.3,0,3.4,1.1,3.4,3.3v16.3c0,2.3-1.1,3.4-3.4,3.4h-33v100.9
			c0,2.3-1.1,3.4-3.3,3.4h-18.5c-2.2,0-3.3-1.1-3.3-3.4V73H284C281.8,73,280.7,71.8,280.7,69.5z"/>
		<path class="st0" d="M403.1,173.9V53.4c0-2.3,1.1-3.4,3.3-3.4h83.9c2.3,0,3.4,1.1,3.4,3.4v16.6c0,2.3-1.1,3.4-3.4,3.4h-62.1v25.9
			h47.4c2.5,0,3.8,1.1,3.8,3.4v16.3c0,2.3-1.3,3.4-3.8,3.4h-47.4V154h63.7c2.4,0,3.6,1.1,3.6,3.4v16.5c0,2.3-1.2,3.4-3.6,3.4h-85.5
			C404.2,177.3,403.1,176.2,403.1,173.9z"/>
		<path class="st0" d="M520,173.9V53.4c0-0.9,0.3-1.7,0.8-2.4c0.5-0.7,1.3-1,2.5-1h54.6c5.8,0,11.2,1.2,16.2,3.5
			c5,2.3,9.2,5.5,12.8,9.4c3.5,3.9,6.3,8.4,8.3,13.4c2,5,3,10.2,3,15.6c0,7.2-2,14-5.9,20.3c-3.9,6.4-9.2,11.4-15.7,15.2l23.3,46.3
			c0.5,0.8,0.5,1.6,0.1,2.4c-0.4,0.8-1.2,1.2-2.3,1.2h-22.1c-1.7,0-3-1-3.9-2.9l-20.4-41.2h-26.1v40.7c0,2.3-1.1,3.4-3.4,3.4h-18.4
			C521.1,177.3,520,176.2,520,173.9z M571.8,72.1h-26.8v38.5h26.8c6,0,10.9-1.8,14.8-5.4c3.9-3.6,5.9-8.2,5.9-13.8
			c0-2.7-0.5-5.3-1.5-7.6c-1-2.3-2.5-4.4-4.4-6.1c-1.9-1.7-4.1-3.1-6.6-4C577.6,72.6,574.8,72.1,571.8,72.1z"/>
		<path class="st0" d="M642.7,173.9V53.4c0-0.9,0.3-1.7,0.8-2.4c0.5-0.7,1.3-1,2.5-1h54.6c5.8,0,11.2,1.2,16.2,3.5
			c5,2.3,9.2,5.5,12.8,9.4c3.5,3.9,6.3,8.4,8.3,13.4c2,5,3,10.2,3,15.6c0,7.2-2,14-5.9,20.3c-3.9,6.4-9.2,11.4-15.7,15.2l23.3,46.3
			c0.5,0.8,0.5,1.6,0.1,2.4c-0.4,0.8-1.2,1.2-2.3,1.2h-22.1c-1.7,0-3-1-3.9-2.9l-20.4-41.2h-26.1v40.7c0,2.3-1.1,3.4-3.4,3.4H646
			C643.8,177.3,642.7,176.2,642.7,173.9z M694.5,72.1h-26.8v38.5h26.8c6,0,10.9-1.8,14.8-5.4c3.9-3.6,5.9-8.2,5.9-13.8
			c0-2.7-0.5-5.3-1.5-7.6c-1-2.3-2.5-4.4-4.4-6.1c-1.9-1.7-4.1-3.1-6.6-4C700.3,72.6,697.5,72.1,694.5,72.1z"/>
		<path class="st0" d="M765.5,173.7l48.4-120.5c1-2.2,2.5-3.3,4.3-3.3h14.4c2.1,0,3.5,1.1,4.3,3.3l48.4,120.5c0.6,1.1,0.6,2,0.1,2.7
			c-0.5,0.6-1.3,0.9-2.5,0.9h-18.7c-2.1,0-3.5-1-4.3-3.1l-8.2-20.6H799l-8.1,20.6c-0.8,2.1-2.2,3.1-4.3,3.1h-18.9
			C765.2,177.3,764.5,176.1,765.5,173.7z M825.4,82.9l-18.4,48.6h36.4L825.4,82.9z"/>
		<path class="st0" d="M910,173.9V53.4c0-2.3,1.1-3.4,3.3-3.4h49.9c5.8,0,11.2,1.1,16,3.4c4.8,2.3,9,5.4,12.5,9.2
			c3.5,3.8,6.3,8.2,8.2,13.1c1.9,4.9,2.9,10,2.9,15.3s-1,10.3-3,15.2c-2,4.9-4.8,9.2-8.3,13c-3.5,3.8-7.8,6.8-12.7,9
			c-4.9,2.2-10.2,3.3-16,3.3h-28v42.4c0,2.3-1.1,3.4-3.4,3.4h-18.2C911,177.3,910,176.2,910,173.9z M958.2,71.8h-23.3v38.1h23.3
			c5.7,0,10.4-1.8,13.9-5.4c3.5-3.6,5.3-8.1,5.3-13.5c0-2.6-0.5-5.1-1.4-7.5c-0.9-2.3-2.2-4.4-3.9-6.1c-1.7-1.7-3.8-3.1-6.1-4.1
			C963.7,72.3,961,71.8,958.2,71.8z"/>
		<path class="st0" d="M1149.8,113.7c0,9-1.7,17.5-5.2,25.5c-3.4,8-8.1,14.9-14.1,20.8c-6,5.9-12.9,10.6-20.9,14
			c-8,3.4-16.5,5.1-25.6,5.1s-17.5-1.7-25.5-5.1s-14.9-8.1-20.8-14c-5.9-5.9-10.5-12.8-13.9-20.8c-3.4-8-5.1-16.5-5.1-25.5
			c0-9.2,1.7-17.7,5.1-25.7c3.4-8,8-14.9,13.9-20.8c5.9-5.9,12.8-10.6,20.8-14c8-3.4,16.5-5.1,25.5-5.1s17.6,1.7,25.6,5.1
			c8,3.4,15,8.1,20.9,14c5.9,5.9,10.6,12.8,14.1,20.8C1148.1,95.9,1149.8,104.5,1149.8,113.7z M1124.5,113.7c0-5.8-1-11.3-3.1-16.3
			c-2.1-5-4.9-9.4-8.5-13.1c-3.6-3.7-7.9-6.7-12.8-8.8c-4.9-2.2-10.3-3.3-16.1-3.3c-5.7,0-11,1.1-16,3.3c-4.9,2.2-9.2,5.1-12.8,8.8
			c-3.6,3.7-6.4,8.1-8.4,13.1c-2,5-3,10.5-3,16.3c0,5.7,1,11.1,3,16.1c2,5,4.8,9.4,8.4,13.1c3.6,3.7,7.9,6.7,12.8,8.8
			c4.9,2.2,10.2,3.3,16,3.3c5.8,0,11.2-1.1,16.1-3.3c4.9-2.2,9.2-5.1,12.8-8.8c3.6-3.7,6.4-8.1,8.5-13.1
			C1123.5,124.8,1124.5,119.4,1124.5,113.7z"/>
		<path class="st0" d="M1174.5,173.9V53.4c0-0.9,0.3-1.7,0.8-2.4c0.5-0.7,1.3-1,2.5-1h54.6c5.8,0,11.2,1.2,16.2,3.5
			c5,2.3,9.2,5.5,12.8,9.4c3.5,3.9,6.3,8.4,8.3,13.4c2,5,3,10.2,3,15.6c0,7.2-2,14-5.9,20.3c-3.9,6.4-9.2,11.4-15.7,15.2l23.3,46.3
			c0.5,0.8,0.5,1.6,0.1,2.4c-0.4,0.8-1.2,1.2-2.3,1.2h-22.1c-1.7,0-3-1-3.9-2.9l-20.4-41.2h-26.1v40.7c0,2.3-1.1,3.4-3.4,3.4h-18.4
			C1175.6,177.3,1174.5,176.2,1174.5,173.9z M1226.4,72.1h-26.8v38.5h26.8c6,0,10.9-1.8,14.8-5.4c3.9-3.6,5.9-8.2,5.9-13.8
			c0-2.7-0.5-5.3-1.5-7.6c-1-2.3-2.5-4.4-4.4-6.1c-1.9-1.7-4.1-3.1-6.6-4C1232.1,72.6,1229.4,72.1,1226.4,72.1z"/>
		<path class="st0" d="M1298.1,69.5V53.2c0-2.2,1.1-3.3,3.3-3.3h90.1c2.3,0,3.4,1.1,3.4,3.3v16.3c0,2.3-1.1,3.4-3.4,3.4h-33v100.9
			c0,2.3-1.1,3.4-3.3,3.4h-18.5c-2.2,0-3.3-1.1-3.3-3.4V73h-32.1C1299.2,73,1298.1,71.8,1298.1,69.5z"/>
		<path class="st0" d="M1399.5,173.7l48.4-120.5c1-2.2,2.5-3.3,4.3-3.3h14.4c2.1,0,3.5,1.1,4.3,3.3l48.4,120.5
			c0.6,1.1,0.6,2,0.1,2.7c-0.5,0.6-1.3,0.9-2.5,0.9h-18.7c-2.1,0-3.5-1-4.3-3.1l-8.2-20.6H1433l-8.1,20.6c-0.8,2.1-2.2,3.1-4.3,3.1
			h-18.9C1399.2,177.3,1398.5,176.1,1399.5,173.7z M1459.4,82.9l-18.4,48.6h36.4L1459.4,82.9z"/>
	</g>
	<g>
		<g>
			<circle class="st1" cx="136.4" cy="165.4" r="8.2"/>
		</g>
		<path class="st1" d="M106,0.3C49.2,4.2,3.4,50.7,0.2,107.6c-2.6,45.3,21.3,85.3,57.6,105.9c4.8,2.7,10.8-0.7,10.8-6.2l0-105.8
			c0-6.2,5.1-11.3,11.3-11.3h68.7c6.2,0,11.3,5.1,11.3,11.3v105.8c0,5.5,5.9,9,10.7,6.3c34.6-19.6,57.9-56.8,57.9-99.4
			C228.4,48.4,172.8-4.4,106,0.3z"/>
	</g>
</g>
</svg>
